PathFileType	4	(X/Y/Z)	pose2sim_tools_200-690.trc
DataRate	CameraRate	NumFrames	NumMarkers	Units	OrigDataRate	OrigDataStartFrame	OrigNumFrames
29	29	6	22	m	29	200	690
Frame#	Time	Hip			RHip			RKnee			RAnkle			RBigToe			RSmallToe			RHeel			LHip			LKnee			LAnkle			LBigToe			LSmallToe			LHeel			Neck			Head			Nose			RShoulder			RElbow			RWrist			LShoulder			LElbow			LWrist			
		X1	Y1	Z1	X2	Y2	Z2	X3	Y3	Z3	X4	Y4	Z4	X5	Y5	Z5	X6	Y6	Z6	X7	Y7	Z7	X8	Y8	Z8	X9	Y9	Z9	X10	Y10	Z10	X11	Y11	Z11	X12	Y12	Z12	X13	Y13	Z13	X14	Y14	Z14	X15	Y15	Z15	X16	Y16	Z16	X17	Y17	Z17	X18	Y18	Z18	X19	Y19	Z19	X20	Y20	Z20	X21	Y21	Z21	X22	Y22	Z22	
200	6.896551724137931	-1.993271519702311	0.48013759699689607	-0.05473060745290616	-1.985890603350501	0.47679694695306724	-0.12767031856317937	-2.144091615148798	0.2210627002799771	-0.1332821378063032	-2.0028095762429317	-0.007005629773832664	-0.16574577374634974	-1.9044698627160193	-0.06931453641881422	-0.22317916169595037	-1.9013250339783059	-0.06240065155538571	-0.25799021528087895	-1.9794964431865743	-0.06746484847464482	-0.16572620240775932	-1.9759273418580086	0.4770913609390601	0.013686132186640068	-2.0323870060616325	0.1893096576192851	-0.009945392575803774	-1.9561041100176484	-0.10805010616344259	-0.0476255203317948	-2.1612252572470747	-0.17263479686556055	-0.07956968945993409	-2.024339243494079	-0.17187573565544365	-0.02640762688712825	-1.920120053557911	-0.1552113658445071	-0.06001723150578937	-2.0331308145475115	0.937854836268872	-0.06690358477600798	-2.0611643625831997	1.160415317644129	-0.07712105342863487	-2.1280778006733385	1.0256260376030983	-0.07506649534129563	-2.0138704069173787	0.8365887061810202	-0.18876383786281933	-1.9944208330515485	0.6282001990458418	-0.24476943856309433	-2.0752459351627452	0.4575037385783937	-0.259958901655594	-2.012766542162845	0.8447088247808711	0.0704044586156277	-2.0112299268699645	0.6514784618525566	0.15175709924703384	-2.121851536241995	0.4877106098322985	0.20381499319400792
201	6.931034482758621	-2.029758378771281	0.48067564890454545	-0.057402990219126565	-2.028359572306699	0.4756713461232612	-0.12841176742635854	-2.2018595722662897	0.21422903008237487	-0.12274025769925755	-2.1155716959046944	-0.03706563197214014	-0.1479232444568859	-2.151245844783638	-0.10286332906225695	-0.15867231532071616	-2.152178767821818	-0.1051969747437843	-0.19000709541440342	-2.086676936201192	-0.0915646283001869	-0.1497469363926409	-2.0123660838776596	0.47766395066945144	0.01115899007620121	-2.0323626734928317	0.18625115852505156	-0.014455024857992362	-1.9564761517992149	-0.10917018271181664	-0.05189710766663455	-2.1350956162680066	-0.16609002292643776	-0.06787263594998379	-2.0252054057032294	-0.16887794504637643	-0.020235532310954735	-1.917410126386177	-0.15498296873199954	-0.06532803223432668	-2.064099123405952	0.9365238646883052	-0.06806954682696155	-2.0923278048217395	1.155332742654384	-0.0783293631574178	-2.174594982107469	1.0275252524961072	-0.0713436933108352	-2.044488402740128	0.8362282998733758	-0.18994601214347256	-2.030123081337471	0.6267246962950243	-0.24441485080923564	-2.094216162482737	0.4590080716905269	-0.26479316743880493	-2.0382220160685094	0.8488006315933877	0.0673782129763461	-2.056823144453067	0.653223080249873	0.15271765974714938	-2.1614944876947857	0.4897804804537011	0.20591486237974468
202	6.9655172413793105	-2.0662452378402514	0.48121370081219483	-0.06007537298534697	-2.070828541262897	0.4745457452934551	-0.12915321628953771	-2.2596275293837813	0.20739535988477265	-0.11219837759221186	-2.228333815566457	-0.06712563417044762	-0.13010071516742205	-2.3980218268512568	-0.1364121217056997	-0.09416546894548193	-2.40303250166533	-0.14799329793218288	-0.12202397554792789	-2.1938574292158095	-0.11566440812572898	-0.13376767037752246	-2.0488048258973106	0.47823654039984276	0.008631847965762354	-2.032338340924031	0.18319265943081803	-0.01896465714018095	-1.9568481935807813	-0.11029025926019069	-0.056168695001474304	-2.1089659752889385	-0.15954524898731498	-0.05617558244003349	-2.0260715679123797	-0.16588015443730922	-0.01406343773478122	-1.9147001992144428	-0.154754571619492	-0.07063883296286398	-2.095067432264392	0.9351928931077383	-0.06923550887791512	-2.1234912470602794	1.150250167664639	-0.07953767288620073	-2.2211121635415996	1.029424467389116	-0.06762089128037478	-2.0751063985628777	0.8358678935657313	-0.1911281864241258	-2.0658253296233937	0.6252491935442067	-0.24406026305537695	-2.1131863898027285	0.46051240480266004	-0.2696274332220159	-2.063677489974174	0.8528924384059043	0.06435196733706448	-2.1024163620361693	0.6549676986471893	0.1536782202472649	-2.201137439147576	0.49185035107510366	0.20801473156548145
203	7.0	-2.1065050643831618	0.4807610584531368	-0.061608781369124545	-2.1185265684845866	0.4793146296796612	-0.12842147010341493	-2.2906104084749352	0.19202015641106926	-0.10637247170508203	-2.293095584494203	-0.10249516296359815	-0.11600891320831264	-2.489874433621633	-0.1424225853038097	-0.09075676722813981	-2.4944088810273435	-0.14732944078685825	-0.11624716769235284	-2.2501268706865756	-0.15885951476720114	-0.12140517846503471	-2.082174994292992	0.48418224841884067	0.008085988854922187	-2.063277626343582	0.18969922785964854	-0.01690841689369815	-1.9616948388215867	-0.1060131272092974	-0.05587396538296224	-2.0934807426700557	-0.1466039657153091	-0.05581824624989319	-2.040141415004373	-0.15844095705573844	-0.014234678818127372	-1.9181850537202791	-0.15455834988234152	-0.06728672129258842	-2.130130879066879	0.9354810840531462	-0.06892723767026358	-2.158854503999905	1.1544935620267918	-0.07930651726147792	-2.235598299908512	1.0305451051229817	-0.0708456683702405	-2.118706258462579	0.8325972879730267	-0.19156933970525594	-2.0940582471535794	0.6205925883826974	-0.24563493768589764	-2.15232037194193	0.45404232395932176	-0.27143161116166464	-2.101190082703563	0.8480480948228132	0.06540748575558293	-2.141188551078164	0.6544349001297153	0.15130921469622668	-2.240031732522589	0.49588365391499367	0.2090133624491837
204	7.0344827586206895	-2.1354365031116083	0.47541055597243737	-0.06650831388101093	-2.151833045737655	0.4741521570205919	-0.13526519861711186	-2.319998155669926	0.1773712957812015	-0.10057281207393087	-2.3592813006357325	-0.12099630859762388	-0.09463719561196325	-2.5853926245583634	-0.14814541081933483	-0.07228092669939302	-2.5853949517922534	-0.15855394228571923	-0.09152322009452425	-2.33506140656523	-0.17374208644511235	-0.09440424241717765	-2.1122482775482223	0.48040689422628974	0.0033894885539206237	-2.0790598882751867	0.18858526905218662	-0.01937550999020542	-1.956313987302026	-0.10244464550437393	-0.05529562985372897	-2.1335977343354906	-0.16545046838655086	-0.05303555746383842	-2.171132506890334	-0.17775409657467203	0.03424057819884024	-1.909896849211507	-0.1456592681314427	-0.07129262268120025	-2.170350392934277	0.9301725038722056	-0.06673146016702185	-2.1935170261289416	1.1442591797270316	-0.07890891095977487	-2.309748006321588	1.0289800077339564	-0.06860390162368862	-2.1453601115649055	0.8335758164847642	-0.18997525391384054	-2.125312953464449	0.619478673729932	-0.2424821903270366	-2.1955023724141847	0.4519384830790194	-0.27175725546256735	-2.137598121448141	0.8485856952381671	0.06631349621837591	-2.1879188009253494	0.6511547188857504	0.15232385386911865	-2.28713780442268	0.49531840271493355	0.21361046061886282
205	7.068965517241379	-2.174342716805535	0.468902663654242	-0.0644066620914138	-2.1791808944761426	0.46968044119137586	-0.13350611113715552	-2.330236701798027	0.17345071047010335	-0.0932537019158237	-2.4192647839103185	-0.12884328388841632	-0.07195416376958257	-2.6100319284980142	-0.1501083278989076	-0.049249754374523703	-2.622938107210842	-0.162534025256435	-0.07583668117119405	-2.3824303398710036	-0.17868804867277546	-0.07581040551753558	-2.157025512630501	0.4775679261658682	0.004086626447304358	-2.1065456230692807	0.18664689192402073	-0.017456266214090965	-1.9566458127316904	-0.09395632157673639	-0.05604308480006538	-2.149966957301191	-0.17346347908314802	-0.06224100535588173	-2.2110113364389905	-0.18695651748150877	0.03666912511266386	-1.9103053506170116	-0.13515669006834105	-0.0719652960624943	-2.204037704637428	0.928477204273159	-0.06652326870541761	-2.2274515779715176	1.1447445564087175	-0.07520470263955327	-2.3386690214038017	1.0274078839607717	-0.0702153584404556	-2.1778653888639203	0.8300672555306806	-0.19004791582103708	-2.1628878567486787	0.6136738422647618	-0.24098532398344719	-2.2163131528913285	0.44705042387119726	-0.2718092549953438	-2.183358884113772	0.8473899156696008	0.06733261236078526	-2.229122496956168	0.6521024946504254	0.15523561031659974	-2.3179570013910364	0.4942833883758876	0.2161940964350846
